<svg width="181" height="33" viewBox="0 0 181 33" fill="none" xmlns="http://www.w3.org/2000/svg">
<g clip-path="url(#clip0)">
<path fill-rule="evenodd" clip-rule="evenodd" d="M18 29H0.8C0.4 29 0 28.7 0 28.2V26.2C0 25.7 0.4 25.3 0.8 25.3H18C18.5 25.3 18.8 25.7 18.8 26.2V28.2C18.9 28.7 18.5 29 18 29Z" fill="#1585FF"/>
<path d="M37.1 0L47 25.3H43.3L40.5 17.7H29.8L27 25.3H23.6L33.4 0H37.1ZM39.4 14.8L35.2 3.1H35.1L30.8 14.9H39.4V14.8Z" fill="#383838"/>
<path d="M51.7 7.00001V10.9H51.8C52.5 9.40001 53.4 8.30001 54.5 7.60001C55.6 6.90001 56.9 6.60001 58.5 6.60001V9.80001C57.3 9.80001 56.3 10 55.4 10.3C54.5 10.6 53.9 11.1 53.3 11.8C52.8 12.4 52.4 13.2 52.2 14.1C52 15 51.8 16.1 51.8 17.2V25.3H48.8V7.00001H51.7Z" fill="#383838"/>
<path d="M71.1 10.2C70.3 9.6 69.3 9.2 68.1 9.2C67 9.2 66.1 9.4 65.4 9.8C64.7 10.2 64.1 10.7 63.6 11.4C63.2 12.1 62.9 12.8 62.7 13.7C62.5 14.6 62.4 15.5 62.4 16.4C62.4 17.2 62.5 18.1 62.7 18.9C62.9 19.7 63.2 20.4 63.6 21C64 21.6 64.6 22.1 65.3 22.5C66 22.9 66.8 23.1 67.7 23.1C69.2 23.1 70.3 22.7 71.2 21.9C72 21.1 72.6 20 72.7 18.6H75.8C75.5 20.9 74.6 22.6 73.3 23.8C71.9 25 70.1 25.6 67.8 25.6C66.4 25.6 65.2 25.4 64.1 24.9C63 24.5 62.1 23.8 61.4 23C60.7 22.2 60.1 21.2 59.8 20C59.4 18.9 59.3 17.6 59.3 16.2C59.3 14.8 59.5 13.6 59.8 12.4C60.2 11.2 60.7 10.2 61.4 9.3C62 8.5 62.9 7.8 64 7.3C65.1 6.8 66.3 6.5 67.8 6.5C68.8 6.5 69.8 6.6 70.7 6.9C71.6 7.1 72.4 7.5 73.1 8.1C73.8 8.6 74.4 9.3 74.8 10.1C75.2 10.9 75.5 11.8 75.6 12.9H72.5C72.3 11.7 71.8 10.8 71.1 10.2Z" fill="#383838"/>
<path d="M82.1 0V9.7H82.2C82.4 9.1 82.8 8.7 83.2 8.3C83.6 7.9 84.1 7.6 84.6 7.3C85.1 7.1 85.7 6.9 86.3 6.8C86.9 6.7 87.4 6.6 88 6.6C89.2 6.6 90.2 6.8 91 7.1C91.8 7.4 92.5 7.9 92.9 8.5C93.4 9.1 93.7 9.8 93.9 10.6C94.1 11.4 94.2 12.3 94.2 13.3V25.3H91.2V12.9C91.2 11.8 90.9 10.9 90.2 10.2C89.5 9.5 88.6 9.2 87.5 9.2C86.6 9.2 85.8 9.3 85.1 9.6C84.4 9.9 83.9 10.3 83.4 10.8C83 11.3 82.6 11.9 82.4 12.6C82.2 13.3 82.1 14.1 82.1 14.9V25.2H79.1V0H82.1Z" fill="#383838"/>
<path d="M99 3.7V0H102V3.7H99ZM102 7V25.3H99V7H102Z" fill="#383838"/>
<path d="M111.7 25.3L104.9 7H108.3L113.4 22.3H113.5L118.5 7H121.7L115 25.3H111.7Z" fill="#383838"/>
<path d="M137.3 24.1C135.9 25.1 134.2 25.7 132.1 25.7C130.6 25.7 129.4 25.5 128.3 25C127.2 24.5 126.3 23.9 125.6 23C124.9 22.1 124.3 21.1 124 20C123.6 18.8 123.4 17.5 123.4 16.1C123.4 14.7 123.6 13.4 124 12.3C124.4 11.1 125 10.1 125.8 9.30001C126.6 8.50001 127.5 7.80001 128.5 7.30001C129.6 6.80001 130.7 6.60001 132 6.60001C133.6 6.60001 135 6.90001 136.1 7.60001C137.2 8.30001 138 9.10001 138.7 10.2C139.3 11.2 139.8 12.4 140 13.6C140.2 14.8 140.3 16 140.3 17.1H126.6C126.6 17.9 126.7 18.7 126.9 19.4C127.1 20.1 127.5 20.8 127.9 21.3C128.4 21.9 129 22.3 129.7 22.6C130.4 22.9 131.3 23.1 132.3 23.1C133.6 23.1 134.6 22.8 135.4 22.2C136.2 21.6 136.8 20.7 137 19.5H140C139.6 21.5 138.7 23.1 137.3 24.1ZM136.6 12.4C136.3 11.8 136 11.2 135.5 10.8C135 10.3 134.5 10 133.9 9.70001C133.3 9.40001 132.6 9.30001 131.8 9.30001C131 9.30001 130.3 9.40001 129.7 9.70001C129.1 10 128.5 10.3 128.1 10.8C127.7 11.3 127.3 11.8 127 12.4C126.7 13 126.6 13.7 126.5 14.4H137C137 13.7 136.9 13 136.6 12.4Z" fill="#383838"/>
<path d="M148 21.4V25.3H144V21.4H148Z" fill="#383838"/>
<path d="M155.3 20.9C155.6 21.4 155.9 21.7 156.4 22C156.9 22.3 157.4 22.5 157.9 22.6C158.5 22.7 159.1 22.8 159.7 22.8C160.2 22.8 160.7 22.8 161.2 22.7C161.7 22.6 162.2 22.5 162.6 22.3C163 22.1 163.4 21.8 163.7 21.5C164 21.1 164.1 20.7 164.1 20.1C164.1 19.3 163.8 18.8 163.2 18.4C162.6 18 161.9 17.7 161 17.4C160.1 17.2 159.2 16.9 158.2 16.7C157.2 16.5 156.2 16.2 155.4 15.9C154.5 15.5 153.8 15 153.2 14.4C152.6 13.7 152.3 12.8 152.3 11.7C152.3 10.8 152.5 10 152.9 9.40001C153.3 8.80001 153.8 8.20001 154.5 7.80001C155.1 7.40001 155.9 7.10001 156.7 6.90001C157.5 6.70001 158.3 6.60001 159.1 6.60001C160.1 6.60001 161.1 6.70001 161.9 6.90001C162.8 7.10001 163.5 7.40001 164.2 7.80001C164.9 8.20001 165.4 8.80001 165.8 9.50001C166.2 10.2 166.4 11.1 166.5 12.2H163.5C163.5 11.6 163.3 11.1 163 10.8C162.7 10.4 162.4 10.1 162 9.90001C161.6 9.70001 161.2 9.50001 160.7 9.40001C160.2 9.30001 159.7 9.20001 159.3 9.20001C158.9 9.20001 158.4 9.20001 158 9.30001C157.5 9.40001 157.1 9.50001 156.8 9.70001C156.5 9.90001 156.1 10.1 155.9 10.4C155.7 10.7 155.6 11.1 155.6 11.5C155.6 12 155.8 12.4 156.1 12.8C156.5 13.1 156.9 13.4 157.5 13.6C158.1 13.8 158.7 14 159.4 14.2C160.1 14.4 160.8 14.5 161.5 14.7C162.2 14.9 163 15.1 163.7 15.3C164.4 15.5 165 15.8 165.6 16.2C166.1 16.6 166.6 17.1 166.9 17.6C167.2 18.2 167.4 18.9 167.4 19.8C167.4 20.9 167.2 21.8 166.7 22.5C166.2 23.2 165.7 23.8 164.9 24.2C164.2 24.6 163.3 24.9 162.4 25.1C161.5 25.3 160.6 25.4 159.7 25.4C158.7 25.4 157.7 25.3 156.8 25.1C155.9 24.9 155.1 24.5 154.4 24.1C153.7 23.6 153.1 23 152.7 22.2C152.3 21.4 152 20.5 152 19.4H155C154.9 19.9 155 20.4 155.3 20.9Z" fill="#1585FF"/>
<path d="M170.6 3.6V0H173.6V3.6H170.6ZM173.6 6.9V24.9H170.6V6.9H173.6Z" fill="#1585FF"/>
</g>
<defs>
<clipPath id="clip0">
<rect width="180.9" height="33" fill="white"/>
</clipPath>
</defs>
</svg>
